PathFileType	4	(X/Y/Z)	21_coords_data.trc
DataRate	CameraRate	NumFrames	NumMarkers	Units	OrigDataRate	OrigDataStartFrame	OrigNumFrames
30.0	30.0	5	21	m	30.0	19	65
Frame#	Time	THUMB_TIP	THUMB_IP	THUMB_MCP	THUMB_CMC	INDEX_TIP	INDEX_DIP	INDEX_PIP	INDEX_MCP	MIDDLE_TIP	MIDDLE_DIP	MIDDLE_PIP	MIDDLE_MCP	RING_TIP	RING_DIP	RING_PIP	RING_MCP	PINKY_TIP	PINKY_DIP	PINKY_PIP	PINKY_MCP	WRIST
X1	Y1	Z1	X2	Y2	Z2	X3	Y3	Z3	X4	Y4	Z4	X5	Y5	Z5	X6	Y6	Z6	X7	Y7	Z7	X8	Y8	Z8	X9	Y9	Z9	X10	Y10	Z10	X11	Y11	Z11	X12	Y12	Z12	X13	Y13	Z13	X14	Y14	Z14	X15	Y15	Z15	X16	Y16	Z16	X17	Y17	Z17	X18	Y18	Z18	X19	Y19	Z19	X20	Y20	Z20	X21	Y21	Z21
17	0.5999999999999973	0.5462247906293254	-0.004423432550936024	-0.10054933981296876	0.530048583580409	-0.005734556465084806	-0.11681621657503766	0.49962492298934447	-0.010847597989328106	-0.11268370128637017	0.4780756994605113	-0.023908047492503526	-0.0758741152512164	0.5017872174189253	-0.0002716239691475941	-0.10567159870849668	0.5166849636021362	-0.0024651752837189234	-0.11573368056519856	0.5290789489253366	0.016480895061760426	-0.12666278754026472	0.4983834577011115	0.034074864074553735	-0.10295888138789422	0.5035587701891153	-0.017559866590792006	-0.09968321589553708	0.5197815746955323	-0.009605760483295533	-0.10092933385835567	0.5387989052916808	0.0107882428015883	-0.10940490563924132	0.5102507956040091	0.034389303212294386	-0.08442204547970644	0.509627695693029	-0.01288226952896565	-0.08366269735734783	0.5262488411385655	-0.008316803285192464	-0.08894417840486563	0.5457951442826545	0.006190201185506172	-0.0942042956741388	0.5217916359836645	0.027566674039348316	-0.06967678394405769	0.5182441979283217	-0.01967587230529455	-0.07621622648368676	0.5332121899538471	-0.02018167365513268	-0.08450497667405343	0.5487170201440953	-0.006056218141983316	-0.08356488821140434	0.5277382705833029	0.01043693969330406	-0.05930069107888292	0.4622830810018608	-0.023011742144276925	-0.051989820119430985
18	0.6333333333333304	0.5462377418194343	-0.004348506405913555	-0.10066567690155559	0.5300269431482969	-0.005663504051595325	-0.11689776819121078	0.49961125782512306	-0.010755183470180896	-0.11268102928300061	0.47806300050995354	-0.023853898923011596	-0.07588447699661083	0.5017969789573129	-0.000224732927756377	-0.10565948301079064	0.5166898304143126	-0.002427387476560905	-0.11572682071339979	0.5290393751145068	0.01655218610474174	-0.126648101103987	0.4983871956713469	0.03413974493057492	-0.10288346847623137	0.5035109514284719	-0.01750771909349491	-0.09960303447785163	0.5197361221355283	-0.009570495207876895	-0.10092375871721793	0.5387572198237447	0.010826173869342925	-0.1093844491907976	0.5102494803412995	0.03442768938564422	-0.08435596190261285	0.5096460688231341	-0.012786096024547722	-0.08346526549312228	0.5262082267029085	-0.008220058747582915	-0.08892843581362286	0.5457690697829327	0.006267613679355577	-0.09418778412386053	0.5217772720828846	0.027605143409387023	-0.06961494745122543	0.5181807323279313	-0.01962329989133549	-0.07619054235972361	0.5331442247887965	-0.020126596306557	-0.08448756508429484	0.5486695720870186	-0.00602208962171924	-0.08357186783795617	0.5277284776806213	0.01046287213945618	-0.059269603503229074	0.462283081001861	-0.023011742144276925	-0.051989820119430985
19	0.6666666666666637	0.5462049396725861	-0.004299944322094573	-0.10073968027400465	0.5299814626128918	-0.005614068250193172	-0.11695917072207884	0.499567472788521	-0.010674736392534023	-0.11269315842531247	0.4780544478491011	-0.02381668169438067	-0.07589140531979899	0.5018152046578865	-0.00020153925461396938	-0.1056639156321113	0.5166979306180409	-0.0024199026660741696	-0.1157427713096989	0.5290270826873694	0.016584732516341072	-0.12664349072791553	0.4984031946935068	0.034168600778575864	-0.10283968525324971	0.503505648834734	-0.017494979567278524	-0.09962653542242439	0.5197206784232403	-0.00953829335107581	-0.10095467694378313	0.5387424755561532	0.010865886499697996	-0.10939566198414358	0.5102567075884978	0.03444257589047239	-0.08431880688499166	0.5096315942010866	-0.01283518845609144	-0.08363099982999517	0.526210136332102	-0.008169872219035756	-0.08895892299182961	0.5457601284764246	0.006332672556590757	-0.09421762826859503	0.5217770796307026	0.0276146851894864	-0.06958817150729008	0.518135570921007	-0.019577782728071647	-0.07620928867192034	0.533092469838946	-0.020114953369404387	-0.0845160703869195	0.5486269552539381	-0.006020010914220442	-0.08360811715219274	0.527721074934008	0.010474620605870233	-0.05928210740819262	0.4622830810018609	-0.023011742144276925	-0.051989820119430985
20	0.6999999999999968	0.5462159705200067	-0.004268156291814651	-0.10079467088294386	0.5299665850072428	-0.005586030203029058	-0.11698790029562489	0.49955368442063897	-0.010641471079019027	-0.1127079475553811	0.4780378219711702	-0.023772132547877023	-0.0759038256062598	0.5018250585680414	-0.00014410697584854582	-0.10565281401883941	0.5167053659531677	-0.002373696759092936	-0.11573276349900075	0.5289998799978037	0.016663168731883227	-0.12661635250652642	0.4983914317843876	0.034229351666563934	-0.10277965371932113	0.5035117313275317	-0.017515469213547963	-0.09977508703434307	0.5197076397775086	-0.009498530377792913	-0.1009672452384952	0.5387119712299828	0.010937082917305885	-0.10937144926372439	0.5102456519675475	0.03449022567619242	-0.08425042112336734	0.5096014901258923	-0.01277090277231041	-0.08368871908151349	0.5262017970139865	-0.008104293678858676	-0.0889472902553215	0.5457434963102252	0.006413107120557204	-0.09419581782450764	0.5217633667952677	0.02765218749352205	-0.06952649097198477	0.5181198366642946	-0.01944386952046795	-0.076117242304445	0.5330370237571991	-0.020070137503090724	-0.08448893972188815	0.5485869720770358	-0.005990861851226881	-0.08360286784599708	0.5277083554458343	0.010505441823645212	-0.05925458692857466	0.4622830810018609	-0.023011742144276925	-0.051989820119430985
21	0.7333333333333302	0.5462031283129176	-0.004249529324518719	-0.10081976824604988	0.5299500463972364	-0.005571814998879265	-0.1170089278547985	0.4995340990266858	-0.01059006340315738	-0.11270691338424599	0.4780237080317732	-0.02375967256714584	-0.07591351080017145	0.5018457805822023	-5.498121325187011e-05	-0.10566869134926854	0.5167184496575455	-0.0023205122716033477	-0.11575189935064278	0.5289940774769541	0.016741961470595923	-0.12661195871822106	0.49838472346204665	0.03426474998684248	-0.10274450339921054	0.5035011261012852	-0.017480664346576025	-0.09989480620320595	0.5197134645004294	-0.009481588287643783	-0.10097871848519563	0.5387040791182963	0.010976215219015262	-0.10935991065090739	0.51025383253545	0.0345101514683428	-0.08420270025333287	0.5096296743277664	-0.012801067392101961	-0.08363951875066361	0.5262008733211488	-0.008092301439188043	-0.08895204047978639	0.545739501035072	0.006435301035193075	-0.09418374884351155	0.5217673655458682	0.027658943956301973	-0.06949337551209889	0.5180812803499579	-0.01943606985475177	-0.07611104835727472	0.532996332035904	-0.020063492078022493	-0.08448646324606107	0.5485577047698186	-0.005996665513330335	-0.08360323732079822	0.5277086722923745	0.010508874186803352	-0.05923587277389253	0.462283081001861	-0.023011742144276925	-0.051989820119430985
